<?xml version="1.0" standalone="no"?>
<!DOCTYPE svg PUBLIC "-//W3C//DTD SVG 20010904//EN"
 "http://www.w3.org/TR/2001/REC-SVG-20010904/DTD/svg10.dtd">
<svg version="1.0" xmlns="http://www.w3.org/2000/svg"
 width="2000.000000pt" height="1979.000000pt" viewBox="0 0 2000.000000 1979.000000"
 preserveAspectRatio="xMidYMid meet">
<metadata>
Created by potrace 1.13, written by Peter Selinger 2001-2015
</metadata>
<g transform="translate(0.000000,1979.000000) scale(0.100000,-0.100000)"
fill="#ffffff" stroke="none">
<path d="M4602 17408 c3 -445 4 -465 24 -520 30 -77 77 -142 132 -183 128 -95
389 -112 549 -36 68 33 145 111 174 177 44 98 49 156 49 602 l0 423 -82 -3
-83 -3 -5 -450 c-6 -483 -7 -490 -60 -566 -49 -67 -170 -104 -295 -89 -115 14
-187 72 -221 178 -16 50 -18 108 -22 495 l-3 437 -80 0 -80 0 3 -462z"/>
<path d="M1860 17250 l0 -610 85 0 85 0 0 610 0 610 -85 0 -85 0 0 -610z"/>
<path d="M2350 17250 l0 -610 80 0 80 0 0 506 c0 284 4 503 9 500 4 -3 127
-231 272 -506 l264 -500 113 0 112 0 0 610 0 610 -80 0 -80 0 -2 -507 -3 -507
-267 505 -267 504 -115 3 -116 3 0 -611z"/>
<path d="M3600 17250 l0 -610 85 0 85 0 0 245 0 245 139 0 c159 0 220 9 302
46 116 52 170 143 177 295 7 162 -37 260 -147 326 -87 52 -159 63 -415 63
l-226 0 0 -610z m488 454 c89 -37 126 -99 126 -209 0 -87 -12 -121 -61 -167
-51 -49 -89 -58 -243 -58 l-140 0 0 225 0 225 140 0 c105 0 150 -4 178 -16z"/>
<path d="M5680 17790 l0 -70 215 0 215 0 0 -545 0 -545 80 0 80 0 0 545 0 545
220 0 220 0 0 70 0 70 -515 0 -515 0 0 -70z"/>
<path d="M7328 17533 c11 -16 83 -113 161 -218 78 -104 139 -195 137 -201 -3
-9 -294 -405 -339 -461 -7 -10 10 -13 80 -13 l89 0 133 180 133 181 134 -181
133 -180 86 0 c47 0 85 2 85 5 0 2 -77 108 -171 235 l-171 230 53 73 c53 72
253 341 272 365 7 9 -10 12 -80 12 l-90 0 -118 -160 c-66 -88 -122 -160 -126
-160 -4 0 -61 72 -126 160 l-117 160 -89 0 -88 0 19 -27z"/>
<path d="M4960 15830 l0 -360 -281 0 -281 0 71 -77 c39 -43 180 -190 313 -326
l243 -248 300 323 299 323 -279 5 -280 5 -3 358 -2 357 -50 0 -50 0 0 -360z"/>
<path d="M3770 15408 c-56 -38 -75 -73 -74 -133 0 -65 -20 -37 332 -453 l274
-323 -9 -597 -8 -597 -610 -5 c-599 -5 -611 -5 -657 -27 -62 -29 -128 -91
-158 -150 l-25 -48 -3 -3084 -2 -3083 26 -59 c31 -68 92 -130 162 -162 l47
-22 4908 -3 4907 -2 0 -253 c0 -140 3 -449 7 -688 l6 -434 -293 -345 c-160
-190 -299 -361 -307 -380 -19 -43 -12 -113 14 -149 46 -61 134 -82 200 -48 33
17 642 728 676 789 18 31 18 74 14 848 -3 630 -7 823 -17 850 -19 51 -47 88
-83 108 -30 16 -306 17 -4995 20 l-4962 2 2 3003 3 3002 675 5 675 5 34 24
c71 51 69 32 78 761 10 833 10 808 -9 845 -28 51 -639 766 -672 786 -44 27
-114 25 -156 -3z"/>
<path d="M6067 15418 c-29 -10 -656 -744 -685 -801 -13 -26 -15 -126 -16 -767
l-1 -736 27 -36 c17 -22 45 -42 70 -52 39 -14 585 -17 5278 -28 l5235 -13 3
-3002 2 -3003 -932 0 c-515 0 -950 -4 -972 -9 -49 -12 -103 -64 -116 -113 -7
-23 -9 -330 -8 -855 3 -814 3 -818 24 -854 28 -46 613 -738 654 -773 70 -58
192 -27 231 58 22 48 23 71 8 116 -7 18 -144 188 -305 379 l-293 346 -1 692 0
692 893 3 892 3 57 28 c72 35 141 110 165 180 17 50 18 178 18 3107 0 2929 -1
3057 -18 3107 -24 70 -93 145 -165 180 l-57 28 -430 3 c-236 1 -2571 8 -5187
15 -2616 7 -4759 15 -4762 18 -3 2 -2 266 1 587 l6 582 289 341 c159 187 296
355 304 372 22 41 14 115 -16 157 -38 54 -121 75 -193 48z"/>
<path d="M14195 10533 c-111 -33 -161 -109 -172 -257 l-6 -86 -68 0 -69 0 0
-60 0 -60 70 0 70 0 2 -397 3 -398 73 -3 72 -3 0 401 0 400 125 0 125 0 0 60
0 60 -126 0 -127 0 6 81 c11 133 31 149 188 149 l99 0 0 65 0 65 -107 -1 c-66
0 -127 -6 -158 -16z"/>
<path d="M8595 10504 c-110 -24 -191 -68 -265 -143 -123 -124 -171 -259 -171
-476 0 -217 48 -352 171 -476 78 -79 158 -120 280 -145 161 -32 364 1 488 79
l42 27 0 86 0 85 -42 -34 c-54 -43 -127 -80 -203 -102 -89 -26 -251 -18 -326
17 -153 70 -227 202 -236 424 -11 256 68 425 235 502 76 35 238 43 327 17 76
-22 149 -59 203 -102 l42 -34 0 89 0 89 -57 31 c-138 72 -338 100 -488 66z"/>
<path d="M11265 10505 c-76 -16 -123 -36 -177 -73 -169 -117 -249 -293 -249
-547 0 -214 53 -364 172 -483 129 -128 323 -179 524 -137 104 22 171 59 251
139 122 122 174 265 174 481 0 216 -52 359 -174 481 -42 41 -94 82 -126 97
-109 53 -268 70 -395 42z m213 -130 c126 -17 236 -125 285 -280 18 -58 22 -94
22 -210 0 -116 -4 -152 -22 -210 -51 -163 -159 -264 -303 -283 -267 -37 -450
161 -450 487 1 228 80 395 223 467 47 24 142 44 182 38 11 -1 39 -5 63 -9z"/>
<path d="M5732 10038 c3 -445 4 -465 24 -520 30 -77 77 -142 132 -183 128 -95
389 -112 549 -36 68 33 145 111 174 177 44 98 49 156 49 602 l0 423 -82 -3
-83 -3 -5 -450 c-6 -483 -7 -490 -60 -566 -49 -67 -170 -104 -295 -89 -115 14
-187 72 -221 178 -16 50 -18 108 -22 495 l-3 437 -80 0 -80 0 3 -462z"/>
<path d="M4782 9878 l3 -613 80 0 80 0 3 293 2 292 240 0 240 0 0 70 0 70
-240 0 -240 0 0 180 0 180 270 0 270 0 0 70 0 70 -355 0 -355 0 2 -612z"/>
<path d="M6970 9880 l0 -610 80 0 80 0 0 506 c0 284 4 503 9 500 4 -3 127
-231 272 -506 l264 -500 113 0 112 0 0 610 0 610 -80 0 -80 0 -2 -507 -3 -507
-267 505 -267 504 -115 3 -116 3 0 -611z"/>
<path d="M9230 10420 l0 -70 215 0 215 0 0 -545 0 -545 80 0 80 0 0 545 0 545
220 0 220 0 0 70 0 70 -515 0 -515 0 0 -70z"/>
<path d="M10410 9880 l0 -610 85 0 85 0 0 610 0 610 -85 0 -85 0 0 -610z"/>
<path d="M12220 9880 l0 -610 80 0 80 0 0 506 c0 284 4 503 9 500 4 -3 127
-231 272 -506 l264 -500 113 0 112 0 0 610 0 610 -80 0 -80 0 -2 -507 -3 -507
-267 505 -267 504 -115 3 -116 3 0 -611z"/>
<path d="M14570 10035 l0 -105 85 0 85 0 0 105 0 105 -85 0 -85 0 0 -105z"/>
<path d="M14570 9375 l0 -105 85 0 85 0 0 105 0 105 -85 0 -85 0 0 -105z"/>
<path d="M13550 4735 l0 -355 -287 -2 -288 -3 289 -300 c159 -165 301 -313
316 -329 l28 -28 298 321 c165 177 301 326 302 331 2 6 -101 10 -277 10 l-281
0 0 355 0 355 -50 0 -50 0 0 -355z"/>
<path d="M16155 3393 c-111 -33 -161 -109 -172 -257 l-6 -86 -68 0 -69 0 0
-60 0 -60 70 0 70 0 2 -397 3 -398 73 -3 72 -3 0 401 0 400 125 0 125 0 0 60
0 60 -126 0 -127 0 6 81 c11 133 31 149 188 149 l99 0 0 65 0 65 -107 -1 c-66
0 -127 -6 -158 -16z"/>
<path d="M16749 3363 c-48 -76 -118 -226 -150 -320 -43 -128 -62 -242 -62
-378 0 -227 60 -436 195 -672 l42 -73 63 0 c35 0 63 2 63 5 0 3 -21 46 -46 96
-217 433 -212 892 16 1317 l39 72 -65 0 -64 0 -31 -47z"/>
<path d="M18172 3402 c2 -4 24 -51 50 -103 212 -427 208 -861 -11 -1297 l-42
-83 67 3 67 3 53 95 c250 443 242 866 -24 1328 l-36 62 -64 0 c-35 0 -62 -4
-60 -8z"/>
<path d="M8965 3365 c-76 -16 -123 -36 -177 -73 -169 -117 -249 -293 -249
-547 0 -214 53 -364 172 -483 129 -128 323 -179 524 -137 104 22 171 59 251
139 122 122 174 265 174 481 0 216 -52 359 -174 481 -42 41 -94 82 -126 97
-109 53 -268 70 -395 42z m213 -130 c126 -17 236 -125 285 -280 18 -58 22 -94
22 -210 0 -116 -4 -152 -22 -210 -51 -163 -159 -264 -303 -283 -267 -37 -450
161 -450 487 1 228 80 395 223 467 47 24 142 44 182 38 11 -1 39 -5 63 -9z"/>
<path d="M9912 2898 c3 -445 4 -465 24 -520 30 -77 77 -142 132 -183 128 -95
389 -112 549 -36 68 33 145 111 174 177 44 98 49 156 49 602 l0 423 -82 -3
-83 -3 -5 -450 c-6 -483 -7 -490 -60 -566 -49 -67 -170 -104 -295 -89 -115 14
-187 72 -221 178 -16 50 -18 108 -22 495 l-3 437 -80 0 -80 0 3 -462z"/>
<path d="M13172 2898 c3 -445 4 -465 24 -520 30 -77 77 -142 132 -183 128 -95
389 -112 549 -36 68 33 145 111 174 177 44 98 49 156 49 602 l0 423 -82 -3
-83 -3 -5 -450 c-6 -483 -7 -490 -60 -566 -49 -67 -170 -104 -295 -89 -115 14
-187 72 -221 178 -16 50 -18 108 -22 495 l-3 437 -80 0 -80 0 3 -462z"/>
<path d="M10990 3280 l0 -70 215 0 215 0 0 -545 0 -545 80 0 80 0 0 545 0 545
220 0 220 0 0 70 0 70 -515 0 -515 0 0 -70z"/>
<path d="M12170 2740 l0 -610 85 0 85 0 0 245 0 245 139 0 c159 0 220 9 302
46 116 52 170 143 177 295 7 162 -37 260 -147 326 -87 52 -159 63 -415 63
l-226 0 0 -610z m488 454 c89 -37 126 -99 126 -209 0 -87 -12 -121 -61 -167
-51 -49 -89 -58 -243 -58 l-140 0 0 225 0 225 140 0 c105 0 150 -4 178 -16z"/>
<path d="M14250 3280 l0 -70 215 0 215 0 0 -545 0 -545 80 0 80 0 0 545 0 545
220 0 220 0 0 70 0 70 -515 0 -515 0 0 -70z"/>
<path d="M17138 3023 c11 -16 83 -113 161 -218 78 -104 139 -195 137 -201 -3
-9 -294 -405 -339 -461 -7 -10 10 -13 80 -13 l89 0 133 180 133 181 134 -181
133 -180 86 0 c47 0 85 2 85 5 0 2 -77 108 -171 235 l-171 230 53 73 c53 72
253 341 272 365 7 9 -10 12 -80 12 l-90 0 -118 -160 c-66 -88 -122 -160 -126
-160 -4 0 -61 72 -126 160 l-117 160 -89 0 -88 0 19 -27z"/>
</g>
</svg>
